# xmcd
#
# Track frame offsets:
#	150
#	14351
#	29670
#	43036
#	54008
#	64341
#	80368
#	92339
#	102334
#	117653
#	129746
#	142947
#	160722
#	173410
#	189837
#	202083
#	209991
#	226213
#	239093
#	251124
#	263228
#	276196
#	289410
#	302645
#
# Disc length: 4212 seconds
#
# Revision: 1
# Processed by: cddbd v1.5.2PL0 Copyright (c) Steve Scherf et al.
# Submitted via: EasyCDDAExtractor 11.5.3.1
#
DISCID=62107218
DTITLE=Erkki Junkkarinen - Ruusuja Hopeamaljassa, Laulajan Muisto
DYEAR=1900
DGENRE=Country
TTITLE0=Ruusuja Hopeamaljassa
TTITLE1=Keinumorsian
TTITLE2=Anna-Liisa
TTITLE3=Kappale Kauneinta Suomea
TTITLE4=Pieni Polku
TTITLE5=Eron Hetki
TTITLE6=Sinun Kanssasi Tähtisilmä
TTITLE7=Romantiikkaa Ruusutarhassa
TTITLE8=Arpiset Haavat
TTITLE9=Lappeenrantaan
TTITLE10=Metsäkukkia
TTITLE11=Viimeinen Ruusu
TTITLE12=Takaisinpaluu
TTITLE13=Nuoruusmuistoja
TTITLE14=Pieni Hetki
TTITLE15=Vesivehmaan Jenkka
TTITLE16=Yksinäinen Harmonikka
TTITLE17=Harhakuva
TTITLE18=Tuhlaajapoika
TTITLE19=Syksyn Lapsi
TTITLE20=Tuija, Tehtaan Tyttönen
TTITLE21=Tosca
TTITLE22=Imatran Inkeri
TTITLE23=Hopeahääpäivä
EXTD=
EXTT0=
EXTT1=
EXTT2=
EXTT3=
EXTT4=
EXTT5=
EXTT6=
EXTT7=
EXTT8=
EXTT9=
EXTT10=
EXTT11=
EXTT12=
EXTT13=
EXTT14=
EXTT15=
EXTT16=
EXTT17=
EXTT18=
EXTT19=
EXTT20=
EXTT21=
EXTT22=
EXTT23=
PLAYORDER=
